<mxfile host="app.diagrams.net" modified="2024-05-17T16:10:22.144Z" agent="Mozilla/5.0 (Macintosh; Intel Mac OS X 10_15_7) AppleWebKit/605.1.15 (KHTML, like Gecko) Version/17.4.1 Safari/605.1.15" etag="2Wvw87j1edtV5HFHkzKD" version="24.4.0" type="github">
  <diagram id="C5RBs43oDa-KdzZeNtuy" name="Page-1">
    <mxGraphModel dx="1622" dy="539" grid="1" gridSize="10" guides="1" tooltips="1" connect="1" arrows="1" fold="1" page="1" pageScale="1" pageWidth="827" pageHeight="1169" math="0" shadow="0">
      <root>
        <mxCell id="WIyWlLk6GJQsqaUBKTNV-0" />
        <mxCell id="WIyWlLk6GJQsqaUBKTNV-1" parent="WIyWlLk6GJQsqaUBKTNV-0" />
        <mxCell id="jv8zRjq5MV1yy5FAPdmx-1" value="" style="edgeStyle=orthogonalEdgeStyle;rounded=0;orthogonalLoop=1;jettySize=auto;html=1;" edge="1" parent="WIyWlLk6GJQsqaUBKTNV-1" source="WIyWlLk6GJQsqaUBKTNV-3" target="jv8zRjq5MV1yy5FAPdmx-0">
          <mxGeometry relative="1" as="geometry" />
        </mxCell>
        <mxCell id="WIyWlLk6GJQsqaUBKTNV-3" value="Start" style="rounded=1;whiteSpace=wrap;html=1;fontSize=12;glass=0;strokeWidth=1;shadow=0;arcSize=50;" parent="WIyWlLk6GJQsqaUBKTNV-1" vertex="1">
          <mxGeometry x="160" y="80" width="120" height="40" as="geometry" />
        </mxCell>
        <mxCell id="jv8zRjq5MV1yy5FAPdmx-3" value="" style="edgeStyle=orthogonalEdgeStyle;rounded=0;orthogonalLoop=1;jettySize=auto;html=1;" edge="1" parent="WIyWlLk6GJQsqaUBKTNV-1" source="jv8zRjq5MV1yy5FAPdmx-0" target="jv8zRjq5MV1yy5FAPdmx-2">
          <mxGeometry relative="1" as="geometry">
            <Array as="points">
              <mxPoint x="220" y="220" />
              <mxPoint x="-45" y="220" />
            </Array>
          </mxGeometry>
        </mxCell>
        <mxCell id="jv8zRjq5MV1yy5FAPdmx-7" value="" style="edgeStyle=orthogonalEdgeStyle;rounded=0;orthogonalLoop=1;jettySize=auto;html=1;" edge="1" parent="WIyWlLk6GJQsqaUBKTNV-1" source="jv8zRjq5MV1yy5FAPdmx-0" target="jv8zRjq5MV1yy5FAPdmx-5">
          <mxGeometry relative="1" as="geometry">
            <Array as="points">
              <mxPoint x="220" y="220" />
              <mxPoint x="90" y="220" />
            </Array>
          </mxGeometry>
        </mxCell>
        <mxCell id="jv8zRjq5MV1yy5FAPdmx-9" value="" style="edgeStyle=orthogonalEdgeStyle;rounded=0;orthogonalLoop=1;jettySize=auto;html=1;" edge="1" parent="WIyWlLk6GJQsqaUBKTNV-1" source="jv8zRjq5MV1yy5FAPdmx-0" target="jv8zRjq5MV1yy5FAPdmx-8">
          <mxGeometry relative="1" as="geometry" />
        </mxCell>
        <mxCell id="jv8zRjq5MV1yy5FAPdmx-11" value="" style="edgeStyle=orthogonalEdgeStyle;rounded=0;orthogonalLoop=1;jettySize=auto;html=1;" edge="1" parent="WIyWlLk6GJQsqaUBKTNV-1" source="jv8zRjq5MV1yy5FAPdmx-0" target="jv8zRjq5MV1yy5FAPdmx-10">
          <mxGeometry relative="1" as="geometry">
            <Array as="points">
              <mxPoint x="220" y="220" />
              <mxPoint x="350" y="220" />
            </Array>
          </mxGeometry>
        </mxCell>
        <mxCell id="jv8zRjq5MV1yy5FAPdmx-13" value="" style="edgeStyle=orthogonalEdgeStyle;rounded=0;orthogonalLoop=1;jettySize=auto;html=1;" edge="1" parent="WIyWlLk6GJQsqaUBKTNV-1" source="jv8zRjq5MV1yy5FAPdmx-0" target="jv8zRjq5MV1yy5FAPdmx-12">
          <mxGeometry relative="1" as="geometry">
            <Array as="points">
              <mxPoint x="220" y="220" />
              <mxPoint x="480" y="220" />
            </Array>
          </mxGeometry>
        </mxCell>
        <mxCell id="jv8zRjq5MV1yy5FAPdmx-0" value="Main Menu: Get User Input" style="whiteSpace=wrap;html=1;rounded=1;glass=0;strokeWidth=1;shadow=0;arcSize=0;" vertex="1" parent="WIyWlLk6GJQsqaUBKTNV-1">
          <mxGeometry x="140" y="140" width="160" height="60" as="geometry" />
        </mxCell>
        <mxCell id="jv8zRjq5MV1yy5FAPdmx-17" value="" style="edgeStyle=orthogonalEdgeStyle;rounded=0;orthogonalLoop=1;jettySize=auto;html=1;" edge="1" parent="WIyWlLk6GJQsqaUBKTNV-1" source="jv8zRjq5MV1yy5FAPdmx-2" target="jv8zRjq5MV1yy5FAPdmx-16">
          <mxGeometry relative="1" as="geometry" />
        </mxCell>
        <mxCell id="jv8zRjq5MV1yy5FAPdmx-2" value="&lt;span style=&quot;text-align: start; font-size: medium;&quot;&gt;1: Add New Patient&lt;/span&gt;" style="whiteSpace=wrap;html=1;rounded=1;glass=0;strokeWidth=1;shadow=0;arcSize=0;" vertex="1" parent="WIyWlLk6GJQsqaUBKTNV-1">
          <mxGeometry x="-110" y="250" width="130" height="60" as="geometry" />
        </mxCell>
        <mxCell id="jv8zRjq5MV1yy5FAPdmx-20" value="" style="edgeStyle=orthogonalEdgeStyle;rounded=0;orthogonalLoop=1;jettySize=auto;html=1;" edge="1" parent="WIyWlLk6GJQsqaUBKTNV-1" source="jv8zRjq5MV1yy5FAPdmx-5" target="jv8zRjq5MV1yy5FAPdmx-19">
          <mxGeometry relative="1" as="geometry" />
        </mxCell>
        <mxCell id="jv8zRjq5MV1yy5FAPdmx-5" value="&lt;span style=&quot;text-align: start; font-size: medium;&quot;&gt;2: Delete Patient&lt;/span&gt;" style="whiteSpace=wrap;html=1;rounded=1;glass=0;strokeWidth=1;shadow=0;arcSize=0;" vertex="1" parent="WIyWlLk6GJQsqaUBKTNV-1">
          <mxGeometry x="30" y="250" width="120" height="60" as="geometry" />
        </mxCell>
        <mxCell id="jv8zRjq5MV1yy5FAPdmx-27" value="" style="edgeStyle=orthogonalEdgeStyle;rounded=0;orthogonalLoop=1;jettySize=auto;html=1;" edge="1" parent="WIyWlLk6GJQsqaUBKTNV-1" source="jv8zRjq5MV1yy5FAPdmx-8" target="jv8zRjq5MV1yy5FAPdmx-26">
          <mxGeometry relative="1" as="geometry" />
        </mxCell>
        <mxCell id="jv8zRjq5MV1yy5FAPdmx-8" value="&lt;span style=&quot;text-align: start; font-size: medium;&quot;&gt;3: Display All Patients&lt;/span&gt;" style="whiteSpace=wrap;html=1;rounded=1;glass=0;strokeWidth=1;shadow=0;arcSize=0;" vertex="1" parent="WIyWlLk6GJQsqaUBKTNV-1">
          <mxGeometry x="160" y="250" width="120" height="60" as="geometry" />
        </mxCell>
        <mxCell id="jv8zRjq5MV1yy5FAPdmx-32" value="" style="edgeStyle=orthogonalEdgeStyle;rounded=0;orthogonalLoop=1;jettySize=auto;html=1;" edge="1" parent="WIyWlLk6GJQsqaUBKTNV-1" source="jv8zRjq5MV1yy5FAPdmx-10" target="jv8zRjq5MV1yy5FAPdmx-31">
          <mxGeometry relative="1" as="geometry" />
        </mxCell>
        <mxCell id="jv8zRjq5MV1yy5FAPdmx-10" value="&lt;span style=&quot;text-align: start; font-size: medium;&quot;&gt;4: Add Additional Bill&lt;/span&gt;" style="whiteSpace=wrap;html=1;rounded=1;glass=0;strokeWidth=1;shadow=0;arcSize=0;" vertex="1" parent="WIyWlLk6GJQsqaUBKTNV-1">
          <mxGeometry x="290" y="250" width="120" height="60" as="geometry" />
        </mxCell>
        <mxCell id="jv8zRjq5MV1yy5FAPdmx-37" value="" style="edgeStyle=orthogonalEdgeStyle;rounded=0;orthogonalLoop=1;jettySize=auto;html=1;" edge="1" parent="WIyWlLk6GJQsqaUBKTNV-1" source="jv8zRjq5MV1yy5FAPdmx-12" target="jv8zRjq5MV1yy5FAPdmx-36">
          <mxGeometry relative="1" as="geometry" />
        </mxCell>
        <mxCell id="jv8zRjq5MV1yy5FAPdmx-12" value="&lt;span style=&quot;text-align: start; font-size: medium;&quot;&gt;5: Exit&lt;/span&gt;" style="whiteSpace=wrap;html=1;rounded=1;glass=0;strokeWidth=1;shadow=0;arcSize=0;" vertex="1" parent="WIyWlLk6GJQsqaUBKTNV-1">
          <mxGeometry x="420" y="250" width="120" height="60" as="geometry" />
        </mxCell>
        <mxCell id="jv8zRjq5MV1yy5FAPdmx-14" value="&lt;span style=&quot;text-align: start; font-size: medium;&quot;&gt;Stop&lt;/span&gt;" style="whiteSpace=wrap;html=1;rounded=1;glass=0;strokeWidth=1;shadow=0;arcSize=50;" vertex="1" parent="WIyWlLk6GJQsqaUBKTNV-1">
          <mxGeometry x="420" y="450" width="120" height="60" as="geometry" />
        </mxCell>
        <mxCell id="jv8zRjq5MV1yy5FAPdmx-18" style="edgeStyle=orthogonalEdgeStyle;rounded=0;orthogonalLoop=1;jettySize=auto;html=1;entryX=0;entryY=0.5;entryDx=0;entryDy=0;" edge="1" parent="WIyWlLk6GJQsqaUBKTNV-1" source="jv8zRjq5MV1yy5FAPdmx-16" target="jv8zRjq5MV1yy5FAPdmx-0">
          <mxGeometry relative="1" as="geometry">
            <Array as="points">
              <mxPoint x="-160" y="440" />
              <mxPoint x="-160" y="170" />
            </Array>
          </mxGeometry>
        </mxCell>
        <mxCell id="jv8zRjq5MV1yy5FAPdmx-16" value="&lt;li&gt;Get patient ID.&lt;/li&gt;&lt;li&gt;Check for duplicate ID.&lt;/li&gt;&lt;li&gt;If duplicate, display an error and go back to the main menu.&lt;/li&gt;&lt;li&gt;Get patient name.&lt;/li&gt;&lt;li&gt;Get treatment cost.&lt;/li&gt;&lt;li&gt;Add patient to array.&lt;/li&gt;&lt;li&gt;Increment patient count.&lt;/li&gt;&lt;li&gt;Display success message.&lt;/li&gt;" style="whiteSpace=wrap;html=1;rounded=1;glass=0;strokeWidth=1;shadow=0;arcSize=0;" vertex="1" parent="WIyWlLk6GJQsqaUBKTNV-1">
          <mxGeometry x="-110" y="330" width="130" height="220" as="geometry" />
        </mxCell>
        <mxCell id="jv8zRjq5MV1yy5FAPdmx-23" style="edgeStyle=orthogonalEdgeStyle;rounded=0;orthogonalLoop=1;jettySize=auto;html=1;exitX=0.5;exitY=1;exitDx=0;exitDy=0;entryX=0;entryY=0.5;entryDx=0;entryDy=0;" edge="1" parent="WIyWlLk6GJQsqaUBKTNV-1" source="jv8zRjq5MV1yy5FAPdmx-19" target="jv8zRjq5MV1yy5FAPdmx-0">
          <mxGeometry relative="1" as="geometry">
            <Array as="points">
              <mxPoint x="90" y="570" />
              <mxPoint x="-160" y="570" />
              <mxPoint x="-160" y="170" />
            </Array>
          </mxGeometry>
        </mxCell>
        <mxCell id="jv8zRjq5MV1yy5FAPdmx-19" value="&lt;li&gt;Get patient ID to delete.&lt;/li&gt;&lt;li&gt;Search for patient in the array.&lt;/li&gt;&lt;li&gt;If found, delete patient and decrement count.&lt;/li&gt;&lt;li&gt;If not found, display an error message.&lt;/li&gt;&lt;li&gt;Display success message if deleted.&lt;/li&gt;" style="whiteSpace=wrap;html=1;rounded=1;glass=0;strokeWidth=1;shadow=0;arcSize=0;" vertex="1" parent="WIyWlLk6GJQsqaUBKTNV-1">
          <mxGeometry x="30" y="330" width="120" height="220" as="geometry" />
        </mxCell>
        <mxCell id="jv8zRjq5MV1yy5FAPdmx-28" style="edgeStyle=orthogonalEdgeStyle;rounded=0;orthogonalLoop=1;jettySize=auto;html=1;exitX=0.5;exitY=1;exitDx=0;exitDy=0;entryX=0;entryY=0.5;entryDx=0;entryDy=0;" edge="1" parent="WIyWlLk6GJQsqaUBKTNV-1" source="jv8zRjq5MV1yy5FAPdmx-26" target="jv8zRjq5MV1yy5FAPdmx-0">
          <mxGeometry relative="1" as="geometry">
            <Array as="points">
              <mxPoint x="220" y="570" />
              <mxPoint x="-160" y="570" />
              <mxPoint x="-160" y="170" />
            </Array>
          </mxGeometry>
        </mxCell>
        <mxCell id="jv8zRjq5MV1yy5FAPdmx-26" value="&lt;li&gt;Print table headers.&lt;/li&gt;&lt;li&gt;Loop through patients array and print each patient&#39;s details.&lt;/li&gt;&lt;li&gt;Print table footer.&lt;/li&gt;" style="whiteSpace=wrap;html=1;rounded=1;glass=0;strokeWidth=1;shadow=0;arcSize=0;" vertex="1" parent="WIyWlLk6GJQsqaUBKTNV-1">
          <mxGeometry x="160" y="330" width="120" height="220" as="geometry" />
        </mxCell>
        <mxCell id="jv8zRjq5MV1yy5FAPdmx-33" style="edgeStyle=orthogonalEdgeStyle;rounded=0;orthogonalLoop=1;jettySize=auto;html=1;exitX=0.5;exitY=1;exitDx=0;exitDy=0;entryX=0;entryY=0.5;entryDx=0;entryDy=0;" edge="1" parent="WIyWlLk6GJQsqaUBKTNV-1" source="jv8zRjq5MV1yy5FAPdmx-31" target="jv8zRjq5MV1yy5FAPdmx-0">
          <mxGeometry relative="1" as="geometry">
            <Array as="points">
              <mxPoint x="350" y="570" />
              <mxPoint x="-160" y="570" />
              <mxPoint x="-160" y="170" />
            </Array>
          </mxGeometry>
        </mxCell>
        <mxCell id="jv8zRjq5MV1yy5FAPdmx-31" value="&lt;li&gt;Get patient ID for adding bill.&lt;/li&gt;&lt;li&gt;Search for patient in the array.&lt;/li&gt;&lt;li&gt;If found, get additional bill amount and update treatment cost.&lt;/li&gt;&lt;li&gt;If not found, display an error message.&lt;/li&gt;&lt;li&gt;Display success message if updated.&lt;/li&gt;" style="whiteSpace=wrap;html=1;rounded=1;glass=0;strokeWidth=1;shadow=0;arcSize=0;" vertex="1" parent="WIyWlLk6GJQsqaUBKTNV-1">
          <mxGeometry x="290" y="330" width="120" height="220" as="geometry" />
        </mxCell>
        <mxCell id="jv8zRjq5MV1yy5FAPdmx-38" style="edgeStyle=orthogonalEdgeStyle;rounded=0;orthogonalLoop=1;jettySize=auto;html=1;exitX=0.5;exitY=1;exitDx=0;exitDy=0;entryX=0.5;entryY=0;entryDx=0;entryDy=0;" edge="1" parent="WIyWlLk6GJQsqaUBKTNV-1" source="jv8zRjq5MV1yy5FAPdmx-36" target="jv8zRjq5MV1yy5FAPdmx-14">
          <mxGeometry relative="1" as="geometry" />
        </mxCell>
        <mxCell id="jv8zRjq5MV1yy5FAPdmx-36" value="&lt;span style=&quot;text-align: start;&quot;&gt;&lt;font style=&quot;font-size: 12px;&quot;&gt;Display exit message and terminate the program.&lt;/font&gt;&lt;/span&gt;" style="whiteSpace=wrap;html=1;rounded=1;glass=0;strokeWidth=1;shadow=0;arcSize=0;" vertex="1" parent="WIyWlLk6GJQsqaUBKTNV-1">
          <mxGeometry x="420" y="350" width="120" height="60" as="geometry" />
        </mxCell>
      </root>
    </mxGraphModel>
  </diagram>
</mxfile>
